<svg xmlns="http://www.w3.org/2000/svg" width="220" height="220" viewBox="0 0 220 220">
  <rect width="220" height="220" fill="none" />
  <g fill="#f7a8b8" opacity="0.16">
    <path d="M56 94c-12-18 1-42 24-42 11 0 18 6 18 6s7-6 18-6c23 0 36 24 24 42-12 18-42 38-42 38S68 112 56 94z" />
    <path d="M150 56c-9-14 1-32 18-32 8 0 13 4 13 4s5-4 13-4c17 0 27 18 18 32-9 14-31 30-31 30s-22-16-31-30z" />
    <path d="M136 156c-8-12 1-28 16-28 7 0 11 4 11 4s4-4 11-4c15 0 24 16 16 28-8 12-27 26-27 26s-19-14-27-26z" />
    <path d="M40 162c-8-12 1-28 16-28 7 0 11 4 11 4s4-4 11-4c15 0 24 16 16 28-8 12-27 26-27 26s-19-14-27-26z" />
  </g>
</svg>
